<svg version="1.1" id="Layer_1" xmlns="http://www.w3.org/2000/svg" xmlns:xlink="http://www.w3.org/1999/xlink" x="0px" y="0px"
	 width="100%" viewBox="0 0 320 320" enable-background="new 0 0 320 320" xml:space="preserve">
<path fill="#000000" opacity="1.000000" stroke="none" 
	d="
M93.468658,321.000000 
	C93.218796,314.500549 94.248589,313.010742 100.255066,312.827972 
	C104.096054,312.711121 105.259483,311.046539 105.142387,307.658478 
	C105.090767,306.164917 105.123856,304.668274 105.066330,303.175049 
	C104.853142,297.641418 105.571175,293.135498 111.396172,289.860809 
	C115.701630,287.440338 118.682541,282.673157 122.278198,278.975403 
	C123.460106,277.759949 122.820534,276.466797 122.500252,275.225250 
	C121.368347,270.837341 119.597641,266.641113 117.142677,262.900879 
	C114.199799,258.417236 114.335701,255.201019 119.095528,252.105164 
	C121.539940,250.515289 123.558235,248.083832 125.355019,245.718185 
	C131.835892,237.185440 131.811493,236.834427 127.662895,226.431961 
	C130.302505,235.172134 123.107468,238.743073 118.843925,243.664658 
	C114.227676,248.993393 108.348473,252.878540 101.864548,255.737549 
	C79.437027,265.626801 57.935257,258.819519 47.748222,238.320267 
	C41.536129,225.819748 43.348656,213.026276 47.686096,200.447159 
	C51.761978,188.626587 58.159164,178.200653 68.075447,169.673767 
	C63.893272,166.968430 59.597065,169.216599 55.737568,168.074982 
	C55.078770,166.401947 56.495831,165.681976 57.352715,164.817505 
	C67.727364,154.351151 86.471214,152.144211 98.969498,159.909439 
	C103.199059,162.537277 106.240921,166.230270 108.223907,170.775223 
	C108.932175,172.398575 109.943642,174.112686 108.208145,175.796234 
	C106.272644,176.092697 105.168221,174.600555 103.787560,173.793289 
	C95.601685,169.007065 88.695892,170.911621 84.025581,179.144302 
	C82.125168,182.494308 81.081474,186.532822 76.916168,188.840866 
	C76.581253,188.300201 76.261322,187.904236 76.069702,187.453705 
	C75.203735,185.417801 75.995537,182.064453 73.137459,181.648346 
	C69.910675,181.178543 69.012085,184.626205 67.676422,186.738022 
	C61.519112,196.473328 56.683563,206.910065 59.055717,218.674301 
	C62.272285,234.626282 75.921532,240.074402 89.811203,231.624130 
	C90.378456,231.279007 90.933922,230.914490 91.922447,230.288055 
	C89.030861,228.321106 89.900284,226.589310 92.057564,224.688293 
	C95.797768,221.392334 99.457901,217.983887 102.538445,213.399902 
	C100.653030,213.052719 98.787453,213.886551 97.172607,212.676437 
	C96.438339,209.971573 98.532791,208.408478 100.134850,206.959961 
	C104.206703,203.278259 108.553146,199.902069 112.726860,196.330154 
	C114.105659,195.150131 116.233498,194.403656 114.399902,191.605545 
	C113.261856,189.868851 115.675179,188.764175 116.973236,187.974213 
	C123.787033,183.827499 130.689102,179.825836 137.629501,175.733109 
	C138.254486,173.907196 135.175400,174.038696 135.785797,171.946823 
	C139.820450,169.216156 144.075470,166.334366 148.332687,163.455856 
	C150.444473,162.027985 152.134247,163.046341 153.698746,164.452209 
	C155.513519,166.082977 157.271255,167.777237 159.105103,169.491974 
	C158.948608,161.362305 148.759445,155.831329 141.260239,154.560287 
	C132.936203,153.149460 125.083855,154.927673 117.342300,160.073074 
	C114.427925,148.574661 111.225853,137.900208 100.702438,131.696701 
	C90.049660,125.416916 79.484268,129.885712 68.971649,132.333191 
	C67.925499,129.347870 69.717789,127.687416 70.540413,125.830048 
	C78.847748,107.073441 70.691895,94.536819 50.035336,94.364861 
	C46.091362,94.332031 42.154118,94.369728 38.211685,95.375206 
	C37.858292,92.446541 39.883457,91.794945 41.158554,90.687401 
	C55.747227,78.015709 52.771690,61.501003 34.693810,54.599895 
	C29.814236,52.737148 24.620441,52.584812 19.616531,51.426689 
	C17.998230,51.052143 16.347866,50.878033 14.920401,49.461899 
	C16.563438,47.061852 19.303513,47.285934 21.550900,46.824478 
	C37.450920,43.559700 53.601101,42.721668 69.705559,43.834156 
	C93.132370,45.452469 115.601387,51.243805 136.623978,62.010807 
	C138.396347,62.918549 140.057587,64.059433 141.712326,65.177979 
	C150.178421,70.900818 150.362350,71.196213 146.480759,80.481094 
	C136.336777,104.745834 147.763962,128.141571 173.113846,136.991364 
	C179.877457,139.352585 184.662430,137.455246 187.249405,131.638153 
	C185.108200,131.693604 183.606934,134.024460 181.162857,133.151703 
	C181.954285,126.897453 182.004120,120.631912 180.985550,114.004227 
	C179.733047,115.034889 178.682114,115.899681 177.255844,117.073334 
	C174.562607,113.053001 175.934326,108.850777 175.710846,104.912636 
	C175.473740,100.734482 178.383484,97.139503 178.345093,93.204353 
	C176.756470,91.422836 174.808304,93.425827 172.775925,91.492432 
	C174.643158,82.601692 181.429321,77.164444 188.617126,71.789856 
	C185.588516,69.366997 181.906082,71.143936 177.991699,69.233734 
	C182.693497,62.468781 190.615204,63.107540 196.903641,59.684929 
	C187.931702,54.146248 178.824631,48.881916 176.742661,36.970280 
	C188.271698,43.399788 199.395081,50.503948 213.445312,51.070633 
	C211.904877,46.731174 207.697296,44.000317 207.947784,39.089806 
	C210.833618,38.022568 212.765472,39.921223 214.713013,41.227795 
	C221.485641,45.771393 227.956848,50.794464 235.489426,54.101421 
	C237.924408,55.170422 240.341217,56.442516 242.902084,57.032143 
	C250.055527,58.679169 256.510895,60.346962 261.084503,67.519127 
	C264.198883,72.403030 270.603912,74.802803 277.127228,73.478531 
	C280.682404,72.756813 282.285797,74.322372 283.490051,77.396515 
	C285.700439,83.038925 286.970062,88.535789 283.232727,94.058960 
	C280.589172,97.965706 278.801727,98.093895 275.939240,94.445435 
	C275.734680,94.184692 275.542480,93.631721 275.395721,93.649017 
	C270.186462,94.262947 268.278137,89.428574 264.719635,87.396225 
	C260.579590,85.031761 255.591614,86.343521 250.957489,86.394989 
	C249.684631,86.409134 248.322083,86.563339 247.234238,88.600739 
	C257.160187,88.579704 262.848907,97.148407 271.557098,99.480606 
	C273.811157,100.084282 274.585358,101.842392 274.205627,104.168060 
	C273.527985,108.317841 269.811554,112.926514 265.416840,114.905022 
	C263.397583,114.377090 265.142670,112.498596 264.027771,111.347832 
	C261.439484,110.593384 258.365417,112.244049 255.626114,110.783600 
	C254.518509,108.957695 256.742096,108.164589 256.805389,106.395195 
	C250.955399,99.655533 243.789093,96.394371 234.437439,98.059135 
	C228.214035,99.167023 222.075104,98.723938 217.707870,93.794235 
	C213.111664,102.840553 219.813644,107.462250 225.343399,112.596581 
	C230.730179,117.598167 235.734604,122.944244 239.777695,129.116547 
	C240.759247,130.615005 241.957169,132.069366 241.871918,134.228363 
	C240.383057,135.000214 239.074875,133.942963 237.741333,133.706711 
	C237.294937,134.415451 237.890305,134.560791 238.240936,134.775589 
	C247.052216,140.173111 250.906174,154.666885 245.971588,163.837509 
	C245.745743,164.257248 245.484283,164.741745 245.492523,165.191437 
	C245.792725,181.573578 234.824432,189.909363 222.552994,197.276947 
	C220.027420,198.793259 217.838898,198.627930 216.542984,195.455078 
	C215.726334,193.455643 214.714767,191.526947 213.676071,189.629227 
	C212.267197,187.055222 212.685242,185.088531 214.878128,183.014709 
	C218.208496,179.865189 220.387085,175.975098 220.496246,171.103699 
	C218.394440,176.403198 214.779327,180.347977 209.997131,183.259109 
	C208.065781,184.434814 208.571930,186.000275 209.255188,187.617065 
	C211.133194,192.061066 212.914825,196.548203 214.895493,200.945801 
	C217.969849,207.771591 218.679092,208.170074 225.948105,206.267258 
	C231.677963,204.767319 236.952225,203.127029 243.288727,205.230423 
	C248.344055,206.908524 250.589249,209.655060 251.174454,214.104599 
	C251.544327,216.917023 252.658936,218.498245 254.836227,220.087784 
	C274.238434,234.252304 282.311310,253.442184 280.509644,277.283478 
	C279.154419,295.217529 270.742249,309.091095 257.200745,320.733826 
	C250.645599,321.000000 244.291214,321.000000 237.647659,320.699005 
	C261.323822,309.369141 273.414398,291.163086 270.635223,264.375183 
	C268.924103,247.882492 260.456726,235.447662 246.294495,226.918564 
	C244.592728,225.893692 242.810974,225.039520 241.290482,223.371475 
	C238.314331,226.787659 235.556793,228.231873 233.374374,222.659973 
	C232.751099,221.068741 230.778992,220.750809 229.124527,220.391235 
	C222.671783,218.988800 216.140640,219.202606 209.830536,220.636337 
	C188.247131,225.540329 174.605408,239.122177 169.717514,260.501221 
	C164.927963,281.450104 172.119843,298.733948 188.453796,312.438385 
	C192.846161,316.123596 198.275558,317.938904 203.000000,321.000000 
	C166.645767,321.000000 130.291550,321.000000 93.468658,321.000000 
M172.590408,214.167358 
	C171.807251,209.483292 169.715302,205.523117 165.868286,201.891312 
	C172.990036,218.726974 168.461334,235.357010 154.038025,246.151291 
	C149.242065,249.740524 144.319412,253.177124 139.299408,256.445007 
	C135.460098,258.944305 134.964722,262.207733 135.690109,266.388062 
	C137.371384,276.077148 143.354065,280.774536 153.758484,281.984619 
	C152.432617,276.674683 152.477066,271.444000 152.717499,266.233185 
	C153.107544,257.780579 154.866394,250.039841 161.550049,243.726349 
	C169.622818,236.100693 174.081390,226.582474 172.590408,214.167358 
M189.543472,168.214691 
	C190.411362,166.652527 191.279251,165.090378 192.380997,163.107285 
	C175.558167,177.298615 177.981659,183.944153 189.260284,191.525635 
	C182.434845,184.337738 182.514130,177.063736 188.720001,169.703659 
	C188.929810,169.454834 189.039719,169.121780 189.543472,168.214691 
M152.069992,315.374420 
	C164.602158,316.306244 167.318802,316.040375 170.962692,313.149567 
	C161.342148,311.016632 152.379379,313.621307 143.343643,314.378693 
	C145.958481,314.656677 148.573303,314.934692 152.069992,315.374420 
M200.522491,207.998291 
	C194.294907,207.980652 191.401306,213.488632 186.740662,216.112656 
	C190.779846,215.065109 194.667267,213.745789 198.486313,212.251633 
	C200.068558,211.632614 202.362640,211.191010 200.522491,207.998291 
M139.789307,296.049011 
	C145.377579,296.049011 150.965851,296.049011 156.554123,296.049011 
	C156.524872,295.434082 156.495636,294.819153 156.466385,294.204224 
	C149.001862,294.584595 141.492676,293.737488 134.057190,295.831787 
	C135.673065,295.903503 137.288940,295.975250 139.789307,296.049011 
M109.526260,95.815514 
	C103.835503,99.069908 98.820717,103.161552 94.412636,108.010620 
	C99.697861,104.248398 105.505165,101.170395 109.526260,95.815514 
M79.199417,76.808838 
	C75.287247,77.298500 71.645645,78.607590 68.109848,80.240494 
	C75.584930,78.254295 83.238937,77.130760 90.762878,75.432304 
	C86.999054,74.537788 83.604050,76.294777 79.199417,76.808838 
M124.325363,134.892029 
	C124.559196,134.933685 123.875351,135.829224 124.697639,135.295990 
	C124.795311,135.232651 124.776367,134.984482 124.805374,134.820923 
	C125.750587,129.491074 126.695053,124.161110 127.639633,118.831154 
	C127.283699,118.779861 126.927765,118.728561 126.571838,118.677269 
	C125.824692,123.891167 125.077553,129.105057 124.325363,134.892029 
M248.484711,72.938148 
	C247.762665,68.425262 245.070236,70.739441 242.646591,70.916672 
	C244.779907,74.632675 244.779907,74.632675 248.484711,72.938148 
z"/>
<path fill="#000000" opacity="1.000000" stroke="none" 
	d="
M146.715561,98.814301 
	C146.482193,90.465912 149.005386,83.252090 152.687698,76.483414 
	C154.552338,73.055893 153.958557,70.721214 151.383072,68.161369 
	C143.266724,60.094322 133.401917,55.044655 122.689720,51.578342 
	C118.813812,50.324158 116.217293,48.588898 114.521072,44.563183 
	C112.219757,39.101376 106.841667,36.462559 101.869629,33.713474 
	C100.026634,32.694466 98.102226,31.822727 95.151978,30.355013 
	C103.098831,28.672188 109.646194,30.508623 116.148109,31.739721 
	C131.058838,34.562981 145.175095,39.317387 156.161636,50.507252 
	C162.550842,57.014683 167.467896,64.440598 169.419128,73.560631 
	C169.897614,75.797028 170.029816,77.796631 168.272705,79.581314 
	C156.724869,91.310387 157.542252,113.256088 166.086792,126.040718 
	C166.710388,126.973763 167.637558,127.833275 167.317780,129.157410 
	C158.081436,127.718437 149.865829,115.786179 146.715561,98.814301 
z"/>
<path fill="#000000" opacity="1.000000" stroke="none" 
	d="
M233.971008,314.274170 
	C203.202255,323.116486 174.370575,301.905365 174.685287,271.058014 
	C174.933365,246.742050 193.837006,227.325104 218.542526,226.009827 
	C241.737930,224.774933 261.725433,242.267883 264.458435,266.195160 
	C266.903107,287.598328 255.449799,305.852570 233.971008,314.274170 
M235.909882,234.520493 
	C229.202286,231.465851 222.107758,230.655518 214.910599,231.554260 
	C197.942245,233.673203 184.308380,246.501480 180.629440,263.468140 
	C177.222427,279.180756 184.143600,295.868774 197.741928,304.728851 
	C212.313049,314.222778 230.116455,313.637146 244.019333,303.388153 
	C267.681671,285.944611 264.509735,247.401413 235.909882,234.520493 
z"/>
<path fill="#000000" opacity="1.000000" stroke="none" 
	d="
M227.240631,246.304321 
	C225.723404,243.098419 226.750824,241.342285 229.738602,242.920425 
	C235.289627,245.852509 240.939102,248.842773 244.769073,254.186127 
	C246.551788,256.673248 247.022629,258.936890 244.462784,261.221252 
	C241.977921,263.438751 239.320358,264.592896 236.553436,262.009308 
	C234.465729,260.059906 232.365738,258.828735 228.180069,259.859985 
	C232.838058,265.274017 238.719482,269.617004 238.326187,277.121399 
	C240.213440,277.865479 239.955551,275.080933 242.147156,275.712891 
	C241.485153,280.607513 242.527054,285.689453 242.364883,291.261108 
	C238.289490,287.294312 233.303757,287.370941 228.791962,286.056000 
	C225.083115,284.975037 223.749237,286.425110 223.992508,289.899841 
	C224.090973,291.306122 224.344833,292.905945 222.657394,293.146362 
	C220.071396,293.514832 217.320023,293.772705 214.960861,292.221802 
	C213.597656,291.325623 213.702835,289.980255 214.655685,288.741241 
	C216.218719,286.708679 214.382263,284.989075 214.527115,282.686859 
	C210.561768,283.849335 207.183578,285.465607 207.592331,289.559662 
	C207.986008,293.502625 211.499390,295.062622 215.191284,295.583405 
	C219.133423,296.139496 222.731232,294.538574 226.408478,293.544220 
	C230.200592,292.518829 233.962631,292.149170 237.660721,293.767822 
	C239.617142,294.624176 241.651627,295.528809 241.842072,298.989319 
	C232.166336,295.612213 223.660675,301.614624 214.365494,301.424957 
	C202.829422,301.189575 197.540894,295.204620 198.776199,283.741638 
	C199.123840,280.515869 199.089279,277.566467 202.144241,275.489380 
	C203.576645,274.515533 204.369324,272.813416 203.041321,271.146149 
	C201.800079,269.587799 200.115524,269.008057 198.136032,269.857513 
	C196.501022,270.559113 195.312408,272.214722 193.479736,272.251343 
	C191.554276,271.071228 192.371399,269.545593 192.514374,268.109283 
	C193.268570,260.533997 193.092117,260.345490 185.844604,260.807281 
	C185.290710,258.544250 186.778320,257.126007 188.012100,255.664185 
	C191.914963,251.039886 197.102356,248.521561 202.715149,246.627014 
	C205.336792,245.742126 208.036591,245.394821 210.647079,244.022369 
	C213.647888,242.444717 216.172333,244.912216 217.887360,247.558807 
	C211.913956,256.808136 211.876175,259.832916 217.632080,263.809509 
	C218.898819,263.072327 218.050308,262.038452 217.934357,261.169525 
	C216.925613,253.609497 218.748825,250.798080 226.067703,248.770462 
	C227.245529,248.444153 229.865753,249.047409 227.240631,246.304321 
z"/>
</svg>