<svg version="1.1" id="Layer_1" xmlns="http://www.w3.org/2000/svg" xmlns:xlink="http://www.w3.org/1999/xlink" x="0px" y="0px"
	 width="100%" viewBox="0 0 225 225" enable-background="new 0 0 225 225" xml:space="preserve">
<path fill="#FEFFFF" opacity="1.000000" stroke="none" 
	d="
M108.000000,226.000000 
	C72.000000,226.000000 36.500004,226.000000 1.000005,226.000000 
	C1.000003,151.000000 1.000003,76.000015 1.000002,1.000015 
	C75.999992,1.000010 150.999985,1.000010 225.999969,1.000005 
	C225.999985,75.999985 225.999985,150.999969 226.000000,225.999969 
	C186.833328,226.000000 147.666672,226.000000 108.000000,226.000000 
M152.688995,97.549850 
	C152.775223,99.073578 152.861450,100.597298 152.749176,102.850998 
	C152.805939,103.852089 152.862701,104.853180 152.598709,106.620476 
	C152.470703,114.617104 152.265427,122.613541 152.246567,130.610428 
	C152.236816,134.743057 151.122879,138.200729 147.344849,140.301422 
	C143.354401,142.520203 139.734482,141.408676 136.132935,139.056015 
	C127.844971,133.642029 119.493187,128.323196 111.082649,123.102127 
	C109.790703,122.300102 108.049141,122.222336 106.515518,121.809616 
	C121.810547,144.529343 137.438080,166.105179 153.048599,187.693283 
	C155.658737,191.302902 159.175140,192.969070 163.472107,191.910629 
	C167.498978,190.918716 170.122009,188.265640 170.735123,182.974213 
	C170.857376,157.047333 170.979645,131.120453 171.403702,104.412971 
	C171.605804,85.440323 171.628937,66.462975 172.127167,47.498100 
	C172.263474,42.308949 170.844803,38.271408 166.562561,35.792645 
	C162.203873,33.269642 158.377319,35.577438 154.680786,38.227383 
	C127.102280,57.997688 99.460197,77.679314 71.849648,97.404968 
	C63.187057,103.593727 54.471493,109.714043 45.951546,116.094505 
	C41.238365,119.624130 40.595890,125.331291 43.913544,129.762177 
	C47.056747,133.960098 52.397419,134.671875 57.224762,131.503845 
	C58.475204,130.683212 59.663635,129.768158 60.881386,128.897659 
	C85.779488,111.099182 110.666626,93.285355 135.582336,75.511574 
	C143.596924,69.794304 148.688980,71.141205 152.840073,80.854698 
	C152.896164,83.239807 152.952255,85.624916 152.820450,88.742592 
	C152.879501,89.490494 152.938538,90.238396 152.815002,91.825958 
	C152.867477,93.536598 152.919937,95.247231 152.688995,97.549850 
z"/>
<path fill="#047EDF" opacity="1.000000" stroke="none" 
	d="
M170.435699,183.844574 
	C170.122009,188.265640 167.498978,190.918716 163.472107,191.910629 
	C159.175140,192.969070 155.658737,191.302902 153.048599,187.693283 
	C137.438080,166.105179 121.810547,144.529343 106.515518,121.809616 
	C108.049141,122.222336 109.790703,122.300102 111.082649,123.102127 
	C119.493187,128.323196 127.844971,133.642029 136.132935,139.056015 
	C139.734482,141.408676 143.354401,142.520203 147.344849,140.301422 
	C151.122879,138.200729 152.236816,134.743057 152.246567,130.610428 
	C152.265427,122.613541 152.470703,114.617104 152.795258,106.600052 
	C153.159698,107.344002 153.327606,108.108383 153.495514,108.872757 
	C153.816528,108.830193 154.137527,108.787621 154.458527,108.745056 
	C153.971542,102.825470 153.484558,96.905884 152.997574,90.986298 
	C152.938538,90.238396 152.879501,89.490494 153.198593,88.106689 
	C153.368103,84.968384 153.159454,82.465996 152.950806,79.963600 
	C148.688980,71.141205 143.596924,69.794304 135.582336,75.511574 
	C110.666626,93.285355 85.779488,111.099182 60.881386,128.897659 
	C59.663635,129.768158 58.475204,130.683212 57.224762,131.503845 
	C52.397419,134.671875 47.056747,133.960098 43.913544,129.762177 
	C40.595890,125.331291 41.238365,119.624130 45.951546,116.094505 
	C54.471493,109.714043 63.187057,103.593727 71.849648,97.404968 
	C99.460197,77.679314 127.102280,57.997688 154.680786,38.227383 
	C158.377319,35.577438 162.203873,33.269642 166.562561,35.792645 
	C170.844803,38.271408 172.263474,42.308949 172.127167,47.498100 
	C171.628937,66.462975 171.605804,85.440323 171.227676,104.434860 
	C170.882065,103.679115 170.712494,102.901482 170.542908,102.123848 
	C170.010956,128.952545 170.008774,155.688644 170.028656,182.424728 
	C170.029007,182.898117 170.294113,183.371292 170.435699,183.844574 
z"/>
<path fill="#0D76CC" opacity="1.000000" stroke="none" 
	d="
M170.585419,183.409393 
	C170.294113,183.371292 170.029007,182.898117 170.028656,182.424728 
	C170.008774,155.688644 170.010956,128.952545 170.542908,102.123848 
	C170.712494,102.901482 170.882065,103.679115 171.076782,104.825157 
	C170.979645,131.120453 170.857376,157.047333 170.585419,183.409393 
z"/>
<path fill="#0072D6" opacity="1.000000" stroke="none" 
	d="
M152.906281,91.406128 
	C153.484558,96.905884 153.971542,102.825470 154.458527,108.745056 
	C154.137527,108.787621 153.816528,108.830193 153.495514,108.872757 
	C153.327606,108.108383 153.159698,107.344002 152.955627,106.216949 
	C152.862701,104.853180 152.805939,103.852089 152.880219,102.055145 
	C152.998306,99.825485 152.985352,98.391678 152.972397,96.957870 
	C152.919937,95.247231 152.867477,93.536598 152.906281,91.406128 
z"/>
<path fill="#0072D6" opacity="1.000000" stroke="none" 
	d="
M152.895447,80.409149 
	C153.159454,82.465996 153.368103,84.968384 153.292542,87.740402 
	C152.952255,85.624916 152.896164,83.239807 152.895447,80.409149 
z"/>
<path fill="#047EDF" opacity="1.000000" stroke="none" 
	d="
M152.830688,97.253860 
	C152.985352,98.391678 152.998306,99.825485 152.979462,101.690155 
	C152.861450,100.597298 152.775223,99.073578 152.830688,97.253860 
z"/>
</svg>